<?xml version="1.0" encoding="utf-8"?>
<!-- Generator: Adobe Illustrator 16.0.0, SVG Export Plug-In . SVG Version: 6.00 Build 0)  -->
<!DOCTYPE svg PUBLIC "-//W3C//DTD SVG 1.1//EN" "http://www.w3.org/Graphics/SVG/1.1/DTD/svg11.dtd">
<svg version="1.1" id="Layer_1" xmlns="http://www.w3.org/2000/svg" xmlns:xlink="http://www.w3.org/1999/xlink" x="0px" y="0px"
	 width="184.387px" height="203.435px" viewBox="0 0 184.387 203.435" enable-background="new 0 0 184.387 203.435"
	 xml:space="preserve">
<g id="XMLID_55_">
	<path id="XMLID_57_" fill="#FFFFFF" d="M13.542,28.258c0.795,4.065,3.358,6.982,7.689,8.75c4.33,1.768,10.782,2.651,19.268,2.74
		c10.341,0,18.295,1.768,23.951,5.126c5.568,3.447,9.104,8.838,10.519,16.439c1.414,7.602-0.354,14.672-5.392,21.124
		S56.938,93.132,46.95,95.076c-10.429,1.944-19.355,0.973-26.78-3.094C12.746,87.917,7.354,81.73,4.172,73.511l11.137-8.662
		c5.479,14.761,15.29,20.771,29.255,18.119c5.833-1.149,10.252-3.447,13.258-6.982c3.005-3.535,4.153-7.336,3.358-11.49
		c-0.884-4.596-3.358-7.689-7.513-9.457c-4.065-1.768-10.43-2.652-18.914-2.74c-9.369-0.088-17.146-1.768-23.157-5.214
		c-6.01-3.447-9.722-8.75-11.136-15.998c-1.414-7.159,0.441-13.611,5.392-19.179c4.949-5.568,12.02-9.28,21.212-11.048
		c8.22-1.591,15.644-0.973,22.185,1.856c6.628,2.828,11.843,7.601,15.731,14.318l-9.898,8.573
		c-5.922-10.518-14.583-14.76-25.809-12.55c-5.037,0.972-9.104,2.828-12.196,5.568C13.983,21.364,12.834,24.546,13.542,28.258"/>
	<path id="XMLID_56_" fill="#FFFFFF" d="M56.938,155.531l47.55-79.546l13.081,7.866l-13.435,83.346l67.172-51.174l13.081,7.866
		l-47.551,79.545l-11.844-7.07l32.968-55.151l-10.871,8.838l-44.192,32.968l-11.844-7.071l8.043-54.709
		c1.415-7.602,2.299-12.197,2.652-13.788l-32.968,55.151L56.938,155.531z"/>
</g>
</svg>
